<svg width="1329" height="96" viewBox="0 0 1329 96" fill="none" xmlns="http://www.w3.org/2000/svg">
<path d="M809.483 24.9681L664 110.766L738.607 82.1667L726.172 95.8446L768.449 67.2453L762.232 79.6798L793.318 58.5412H785.858L809.483 32.4288L823.161 43.6198V49.8371H831.865L848.03 61.0281L862.951 56.0543L889.064 70.9756L953.723 38.6461L927.61 64.7584L908.959 73.4625L866.682 98.3315L848.03 114.496L910.202 98.3315L905.228 110.766L951.236 93.3577H937.558L981.079 58.5412L957.453 64.7584L969.888 47.3502H962.427L981.079 19.9944L998.487 36.1592L1003.46 53.5674L1008.43 43.6198L1027.09 61.0281L1048.22 53.5674L1083.04 84.6535L1080.55 79.6798L1160.13 118.227L1124.07 93.3577L1158.89 84.6535V89.6273L1168.84 84.6535L1191.22 93.3577L1180.03 79.6798L1191.22 58.5412L1216.09 80.9232L1204.9 79.6798L1250.91 107.036L1235.98 89.6273L1328 118.227L1217.33 69.7322L1191.22 51.0805L1153.92 73.4625L1115.37 89.6273L1078.07 69.7322L1048.22 43.6198L1027.09 53.5674L1015.9 41.1329L1008.43 38.6461L981.079 12.5337L887.82 64.7584L864.195 48.5936L848.03 54.8108L809.483 24.9681Z" fill="white"/>
<path d="M809.483 84.6535L774.667 108.279L803.266 95.8446L809.483 98.3315L843.056 84.6535L831.865 82.1667L840.569 67.2453L820.674 79.6798H809.483V84.6535Z" fill="white"/>
<path d="M978.592 89.6273L951.236 110.766L986.052 98.3315L992.27 103.305L997.243 95.8446L1015.9 93.3577L1005.95 87.1404L1020.87 67.2453L996 80.9232L989.783 79.6798L978.592 89.6273Z" fill="white"/>
<path d="M1039.52 93.3577H1032.06L1037.03 100.818L1040.76 110.766L1054.44 103.305L1086.77 110.766L1048.22 83.4101V89.6273L1033.3 80.9232L1039.52 93.3577Z" fill="white"/>
<path d="M809.483 24.9681L664 110.766L738.607 82.1667L726.172 95.8446L768.449 67.2453L762.232 79.6798L793.318 58.5412H785.858L809.483 32.4288L823.161 43.6198V49.8371H831.865L848.03 61.0281L862.951 56.0543L889.064 70.9756L953.723 38.6461L927.61 64.7584L908.959 73.4625L866.682 98.3315L848.03 114.496L910.202 98.3315L905.228 110.766L951.236 93.3577H937.558L981.079 58.5412L957.453 64.7584L969.888 47.3502H962.427L981.079 19.9944L998.487 36.1592L1003.46 53.5674L1008.43 43.6198L1027.09 61.0281L1048.22 53.5674L1083.04 84.6535L1080.55 79.6798L1160.13 118.227L1124.07 93.3577L1158.89 84.6535V89.6273L1168.84 84.6535L1191.22 93.3577L1180.03 79.6798L1191.22 58.5412L1216.09 80.9232L1204.9 79.6798L1250.91 107.036L1235.98 89.6273L1328 118.227L1217.33 69.7322L1191.22 51.0805L1153.92 73.4625L1115.37 89.6273L1078.07 69.7322L1048.22 43.6198L1027.09 53.5674L1015.9 41.1329L1008.43 38.6461L981.079 12.5337L887.82 64.7584L864.195 48.5936L848.03 54.8108L809.483 24.9681Z" stroke="#34343C" stroke-width="2.48689"/>
<path d="M809.483 84.6535L774.667 108.279L803.266 95.8446L809.483 98.3315L843.056 84.6535L831.865 82.1667L840.569 67.2453L820.674 79.6798H809.483V84.6535Z" stroke="#34343C" stroke-width="2.48689"/>
<path d="M978.592 89.6273L951.236 110.766L986.052 98.3315L992.27 103.305L997.243 95.8446L1015.9 93.3577L1005.95 87.1404L1020.87 67.2453L996 80.9232L989.783 79.6798L978.592 89.6273Z" stroke="#34343C" stroke-width="2.48689"/>
<path d="M1039.52 93.3577H1032.06L1037.03 100.818L1040.76 110.766L1054.44 103.305L1086.77 110.766L1048.22 83.4101V89.6273L1033.3 80.9232L1039.52 93.3577Z" stroke="#34343C" stroke-width="2.48689"/>
<path d="M145.483 13.9681L0 99.7659L74.6067 71.1667L62.1723 84.8446L104.449 56.2453L98.2322 68.6798L129.318 47.5412H121.858L145.483 21.4288L159.161 32.6198V38.8371H167.865L184.03 50.0281L198.951 45.0543L225.064 59.9756L289.723 27.6461L263.61 53.7584L244.959 62.4625L202.682 87.3315L184.03 103.496L246.202 87.3315L241.228 99.7659L287.236 82.3577H273.558L317.079 47.5412L293.453 53.7584L305.888 36.3502H298.427L317.079 8.99437L334.487 25.1592L339.461 42.5674L344.434 32.6198L363.086 50.0281L384.225 42.5674L419.041 73.6535L416.554 68.6798L496.135 107.227L460.075 82.3577L494.891 73.6535V78.6273L504.839 73.6535L527.221 82.3577L516.03 68.6798L527.221 47.5412L552.09 69.9232L540.899 68.6798L586.906 96.0356L571.985 78.6273L664 107.227L553.333 58.7322L527.221 40.0805L489.918 62.4625L451.371 78.6273L414.067 58.7322L384.225 32.6198L363.086 42.5674L351.895 30.1329L344.434 27.6461L317.079 1.53369L223.82 53.7584L200.195 37.5936L184.03 43.8108L145.483 13.9681Z" fill="white"/>
<path d="M145.483 73.6535L110.667 97.279L139.266 84.8446L145.483 87.3315L179.056 73.6535L167.865 71.1667L176.569 56.2453L156.674 68.6798H145.483V73.6535Z" fill="white"/>
<path d="M314.592 78.6273L287.236 99.7659L322.052 87.3315L328.27 92.3052L333.243 84.8446L351.895 82.3577L341.948 76.1404L356.869 56.2453L332 69.9232L325.783 68.6798L314.592 78.6273Z" fill="white"/>
<path d="M375.521 82.3577H368.06L373.034 89.8183L376.764 99.7659L390.442 92.3052L422.772 99.7659L384.225 72.4101V78.6273L369.303 69.9232L375.521 82.3577Z" fill="white"/>
<path d="M145.483 13.9681L0 99.7659L74.6067 71.1667L62.1723 84.8446L104.449 56.2453L98.2322 68.6798L129.318 47.5412H121.858L145.483 21.4288L159.161 32.6198V38.8371H167.865L184.03 50.0281L198.951 45.0543L225.064 59.9756L289.723 27.6461L263.61 53.7584L244.959 62.4625L202.682 87.3315L184.03 103.496L246.202 87.3315L241.228 99.7659L287.236 82.3577H273.558L317.079 47.5412L293.453 53.7584L305.888 36.3502H298.427L317.079 8.99437L334.487 25.1592L339.461 42.5674L344.434 32.6198L363.086 50.0281L384.225 42.5674L419.041 73.6535L416.554 68.6798L496.135 107.227L460.075 82.3577L494.891 73.6535V78.6273L504.839 73.6535L527.221 82.3577L516.03 68.6798L527.221 47.5412L552.09 69.9232L540.899 68.6798L586.906 96.0356L571.985 78.6273L664 107.227L553.333 58.7322L527.221 40.0805L489.918 62.4625L451.371 78.6273L414.067 58.7322L384.225 32.6198L363.086 42.5674L351.895 30.1329L344.434 27.6461L317.079 1.53369L223.82 53.7584L200.195 37.5936L184.03 43.8108L145.483 13.9681Z" stroke="#34343C" stroke-width="2.48689"/>
<path d="M145.483 73.6535L110.667 97.279L139.266 84.8446L145.483 87.3315L179.056 73.6535L167.865 71.1667L176.569 56.2453L156.674 68.6798H145.483V73.6535Z" stroke="#34343C" stroke-width="2.48689"/>
<path d="M314.592 78.6273L287.236 99.7659L322.052 87.3315L328.27 92.3052L333.243 84.8446L351.895 82.3577L341.948 76.1404L356.869 56.2453L332 69.9232L325.783 68.6798L314.592 78.6273Z" stroke="#34343C" stroke-width="2.48689"/>
<path d="M375.521 82.3577H368.06L373.034 89.8183L376.764 99.7659L390.442 92.3052L422.772 99.7659L384.225 72.4101V78.6273L369.303 69.9232L375.521 82.3577Z" stroke="#34343C" stroke-width="2.48689"/>
</svg>
