<svg width="125" height="45" viewBox="0 0 125 45" fill="none" xmlns="http://www.w3.org/2000/svg">
<path d="M16.1252 39.2842V25.9402H9.95719C9.95719 30.8602 9.66919 33.9562 8.97319 35.7562C8.08519 37.9882 6.38119 39.2842 2.68519 39.2842H0.645188V34.2202H1.02919C2.15719 34.2202 2.78119 33.6922 3.16519 32.8522C3.69319 31.7002 3.76519 29.9242 3.76519 21.4282H22.6052V39.2842H16.1252ZM26.6488 21.4282H44.4808V25.7482H33.1048V28.0282H44.1208V32.4682H33.1048V34.9162H44.6488V39.2842H26.6488V21.4282ZM48.2582 39.2842V21.4282H54.7382V27.7162H63.7862V21.4282H70.2422V39.2842H63.7862V32.5162H54.7382V39.2842H48.2582ZM84.9778 21.1162H86.0578C95.5858 21.1162 97.5538 26.2522 97.5538 29.9482V30.6682C97.5538 34.3162 95.6098 39.5962 86.0578 39.5962H84.9778C75.4738 39.5962 73.4818 34.3162 73.4818 30.6682V29.9482C73.4818 26.2282 75.4978 21.1162 84.9778 21.1162ZM90.7858 30.4042V30.1402C90.7858 28.4122 90.0178 25.9642 85.5058 25.9642C80.9938 25.9642 80.2498 28.4122 80.2498 30.1402V30.4042C80.2498 32.1322 81.0418 34.6762 85.5298 34.6762C90.0178 34.6762 90.7858 32.1322 90.7858 30.4042ZM114.797 39.2842V25.9402H108.629C108.629 30.8602 108.341 33.9562 107.645 35.7562C106.757 37.9882 105.053 39.2842 101.357 39.2842H99.3171V34.2202H99.7011C100.829 34.2202 101.453 33.6922 101.837 32.8522C102.365 31.7002 102.437 29.9242 102.437 21.4282H121.277V39.2842H114.797Z" fill="white"/>
<path d="M27.0666 2.58755L0.117188 18.4808L13.9374 13.1831L11.634 15.7168L19.4655 10.419L18.3138 12.7224L24.0722 8.80665H22.6902L27.0666 3.96957L29.6003 6.04261V7.19429H31.2127L34.2071 9.26733L36.9711 8.34598L41.8082 11.11L53.7857 5.12126L48.9487 9.95834L45.4936 11.5707L37.6621 16.1774L34.2071 19.1718L45.7239 16.1774L44.8026 18.4808L53.3251 15.2561H50.7913L58.8531 8.80665L54.4767 9.95834L56.7801 6.73362H55.3981L58.8531 1.6662L62.0779 4.66058L62.9992 7.8853L63.9206 6.04261L67.3756 9.26733L71.2913 7.8853L77.7408 13.6437L77.2801 12.7224L92.0217 19.8628L85.3419 15.2561L91.7913 13.6437V14.5651L93.634 13.6437L97.7801 15.2561L95.7071 12.7224L97.7801 8.80665L102.387 12.9527L100.314 12.7224L108.836 17.7898L106.072 14.5651L123.117 19.8628L102.617 10.8797L97.7801 7.42463L90.87 11.5707L83.7295 14.5651L76.8194 10.8797L71.2913 6.04261L67.3756 7.8853L65.3026 5.58193L63.9206 5.12126L58.8531 0.28418L41.5779 9.95834L37.2015 6.96395L34.2071 8.11564L27.0666 2.58755Z" fill="white"/>
<path d="M27.0666 13.6437L20.6172 18.0201L25.9149 15.7168L27.0666 16.1774L33.2857 13.6437L31.2127 13.1831L32.8251 10.419L29.1397 12.7224H27.0666V13.6437Z" fill="white"/>
<path d="M58.3925 14.5651L53.3251 18.4808L59.7745 16.1774L60.9262 17.0988L61.8475 15.7168L65.3026 15.2561L63.4599 14.1044L66.2239 10.419L61.6172 12.9527L60.4655 12.7224L58.3925 14.5651Z" fill="white"/>
<path d="M69.679 15.2561H68.297L69.2183 16.6381L69.9093 18.4808L72.443 17.0988L78.4318 18.4808L71.2913 13.4134V14.5651L68.5273 12.9527L69.679 15.2561Z" fill="white"/>
<path d="M27.0666 2.58755L0.117188 18.4808L13.9374 13.1831L11.634 15.7168L19.4655 10.419L18.3138 12.7224L24.0722 8.80665H22.6902L27.0666 3.96957L29.6003 6.04261V7.19429H31.2127L34.2071 9.26733L36.9711 8.34598L41.8082 11.11L53.7857 5.12126L48.9487 9.95834L45.4936 11.5707L37.6621 16.1774L34.2071 19.1718L45.7239 16.1774L44.8026 18.4808L53.3251 15.2561H50.7913L58.8531 8.80665L54.4767 9.95834L56.7801 6.73362H55.3981L58.8531 1.6662L62.0779 4.66058L62.9992 7.8853L63.9206 6.04261L67.3756 9.26733L71.2913 7.8853L77.7408 13.6437L77.2801 12.7224L92.0217 19.8628L85.3419 15.2561L91.7913 13.6437V14.5651L93.634 13.6437L97.7801 15.2561L95.7071 12.7224L97.7801 8.80665L102.387 12.9527L100.314 12.7224L108.836 17.7898L106.072 14.5651L123.117 19.8628L102.617 10.8797L97.7801 7.42463L90.87 11.5707L83.7295 14.5651L76.8194 10.8797L71.2913 6.04261L67.3756 7.8853L65.3026 5.58193L63.9206 5.12126L58.8531 0.28418L41.5779 9.95834L37.2015 6.96395L34.2071 8.11564L27.0666 2.58755Z" stroke="white" stroke-width="0.460674"/>
<path d="M27.0666 13.6437L20.6172 18.0201L25.9149 15.7168L27.0666 16.1774L33.2857 13.6437L31.2127 13.1831L32.8251 10.419L29.1397 12.7224H27.0666V13.6437Z" stroke="white" stroke-width="0.460674"/>
<path d="M58.3925 14.5651L53.3251 18.4808L59.7745 16.1774L60.9262 17.0988L61.8475 15.7168L65.3026 15.2561L63.4599 14.1044L66.2239 10.419L61.6172 12.9527L60.4655 12.7224L58.3925 14.5651Z" stroke="white" stroke-width="0.460674"/>
<path d="M69.679 15.2561H68.297L69.2183 16.6381L69.9093 18.4808L72.443 17.0988L78.4318 18.4808L71.2913 13.4134V14.5651L68.5273 12.9527L69.679 15.2561Z" stroke="white" stroke-width="0.460674"/>
</svg>
