<svg width="30" height="30" viewBox="0 0 30 30" fill="none" xmlns="http://www.w3.org/2000/svg">
<path d="M23.0066 29.0943C22.717 29.0935 22.4283 29.0617 22.1454 28.9995C16.7606 27.8856 11.7997 25.2738 7.83377 21.4648C3.95246 17.6474 1.26056 12.787 0.083773 7.47176C-0.0549852 6.80932 -0.0209285 6.12231 0.182667 5.47684C0.386262 4.83137 0.752544 4.24915 1.24627 3.78621L4.69072 0.470928C4.86665 0.30455 5.07569 0.177142 5.30419 0.0970179C5.53269 0.0168938 5.77552 -0.0141449 6.01683 0.00592759C6.26704 0.0320304 6.50849 0.112631 6.7242 0.24206C6.93992 0.37149 7.12466 0.546606 7.26544 0.755094L11.571 7.11871C11.7325 7.36562 11.8104 7.65785 11.7933 7.95238C11.7763 8.2469 11.6652 8.52818 11.4763 8.75482L9.31488 11.3381C10.1757 13.2433 11.3948 14.9652 12.9057 16.4101C14.4069 17.9074 16.1812 19.103 18.1327 19.932L20.8107 17.8051C21.0356 17.6273 21.3093 17.5222 21.5954 17.5038C21.8815 17.4853 22.1665 17.5544 22.4124 17.7018L28.9138 21.904C29.1369 22.0372 29.327 22.2192 29.4697 22.4363C29.6125 22.6534 29.7044 22.9 29.7383 23.1576C29.7723 23.4152 29.7475 23.6772 29.6659 23.9239C29.5842 24.1705 29.4478 24.3956 29.2668 24.582L25.9085 27.9059C25.527 28.2855 25.0742 28.586 24.5762 28.7899C24.0782 28.9938 23.5447 29.0973 23.0066 29.0943ZM5.87905 1.71093L2.43461 5.02621C2.15686 5.28501 1.95125 5.61166 1.83802 5.97402C1.72478 6.33637 1.70781 6.72197 1.78877 7.09287C2.88301 12.0805 5.39831 16.6446 9.03072 20.2334C12.7629 23.817 17.4314 26.2736 22.4985 27.3204C22.882 27.4006 23.2795 27.3843 23.6552 27.2731C24.0309 27.1619 24.3732 26.9592 24.6513 26.6831L28.0096 23.3593L21.7321 19.3034L18.856 21.594C18.7459 21.6811 18.6161 21.74 18.4781 21.7655C18.34 21.7911 18.1978 21.7824 18.0638 21.7404C15.6757 20.8605 13.5115 19.4638 11.726 17.6501C9.87922 15.9255 8.4457 13.8061 7.53238 11.4501C7.49375 11.3075 7.49246 11.1573 7.52866 11.014C7.56485 10.8707 7.63731 10.7392 7.73905 10.632L10.0641 7.85065L5.87905 1.71093Z" fill="white"/>
</svg>
