            <svg
              width="400"
              height="80"
              viewBox="0 0 782 128"
              fill="none"
              xmlns="http://www.w3.org/2000/svg"
            >
              <path d="M171.641 16.4085L0.742188 117.195L88.3826 83.5995L73.7759 99.6669L123.439 66.0714L116.135 80.6782L152.652 55.8467H143.888L171.641 25.1725L187.708 38.3186V45.622H197.933L216.922 58.7681L234.45 52.9254L265.124 70.4534L341.079 32.4759L310.405 63.1501L288.495 73.3748L238.832 102.588L216.922 121.577L289.956 102.588L284.113 117.195L338.158 96.7456H322.091L373.214 55.8467L345.461 63.1501L360.068 42.7006H351.304L373.214 10.5658L393.664 29.5546L399.506 50.004L405.349 38.3186L427.259 58.7681L452.091 50.004L492.989 86.5209L490.068 80.6782L583.551 125.959L541.192 96.7456L582.091 86.5209V92.3636L593.776 86.5209L620.068 96.7456L606.922 80.6782L620.068 55.8467L649.281 82.1388L636.135 80.6782L690.18 112.813L672.652 92.3636L780.742 125.959L650.742 68.9928L620.068 47.0827L576.248 73.3748L530.967 92.3636L487.147 68.9928L452.091 38.3186L427.259 50.004L414.113 35.3973L405.349 32.4759L373.214 1.80176L263.664 63.1501L235.911 44.1613L216.922 51.4647L171.641 16.4085Z" fill="#ffffff" />
              <path d="M171.641 86.5209L130.742 114.274L164.338 99.6669L171.641 102.588L211.079 86.5209L197.933 83.5995L208.158 66.0714L184.787 80.6782H171.641V86.5209Z" fill="#ffffff" />
              <path d="M370.293 92.3636L338.158 117.195L379.057 102.588L386.36 108.431L392.203 99.6669L414.113 96.7456L402.428 89.4422L419.956 66.0714L390.742 82.1388L383.439 80.6782L370.293 92.3636Z" fill="#ffffff" />
              <path d="M441.866 96.7456H433.102L438.944 105.51L443.326 117.195L459.394 108.431L497.371 117.195L452.091 85.0602V92.3636L434.562 82.1388L441.866 96.7456Z" fill="#ffffff" />
              <path d="M171.641 16.4085L0.742188 117.195L88.3826 83.5995L73.7759 99.6669L123.439 66.0714L116.135 80.6782L152.652 55.8467H143.888L171.641 25.1725L187.708 38.3186V45.622H197.933L216.922 58.7681L234.45 52.9254L265.124 70.4534L341.079 32.4759L310.405 63.1501L288.495 73.3748L238.832 102.588L216.922 121.577L289.956 102.588L284.113 117.195L338.158 96.7456H322.091L373.214 55.8467L345.461 63.1501L360.068 42.7006H351.304L373.214 10.5658L393.664 29.5546L399.506 50.004L405.349 38.3186L427.259 58.7681L452.091 50.004L492.989 86.5209L490.068 80.6782L583.551 125.959L541.192 96.7456L582.091 86.5209V92.3636L593.776 86.5209L620.068 96.7456L606.922 80.6782L620.068 55.8467L649.281 82.1388L636.135 80.6782L690.18 112.813L672.652 92.3636L780.742 125.959L650.742 68.9928L620.068 47.0827L576.248 73.3748L530.967 92.3636L487.147 68.9928L452.091 38.3186L427.259 50.004L414.113 35.3973L405.349 32.4759L373.214 1.80176L263.664 63.1501L235.911 44.1613L216.922 51.4647L171.641 16.4085Z" stroke="#FF6600" stroke-width="2.92135" />
              <path d="M171.641 86.5209L130.742 114.274L164.338 99.6669L171.641 102.588L211.079 86.5209L197.933 83.5995L208.158 66.0714L184.787 80.6782H171.641V86.5209Z" stroke="#FF6600" stroke-width="2.92135" />
              <path d="M370.293 92.3636L338.158 117.195L379.057 102.588L386.36 108.431L392.203 99.6669L414.113 96.7456L402.428 89.4422L419.956 66.0714L390.742 82.1388L383.439 80.6782L370.293 92.3636Z" stroke="#FF6600" stroke-width="2.92135" />
              <path d="M441.866 96.7456H433.102L438.944 105.51L443.326 117.195L459.394 108.431L497.371 117.195L452.091 85.0602V92.3636L434.562 82.1388L441.866 96.7456Z" stroke="#FF6600" stroke-width="2.92135" />
            </svg>